<svg width="208" height="28" viewBox="0 0 208 28" fill="none" xmlns="http://www.w3.org/2000/svg">
<path fill-rule="evenodd" clip-rule="evenodd" d="M106.103 18.4921V4.08533L108.645 4.12276V24.9809L95.2416 9.58116V23.9791H92.6992V3.08789L106.105 18.4921H106.103ZM6.21736 15.2664L4.65974 23.9791H2.01819L4.47909 11.1907L6.21736 15.2664ZM21.3639 11.1379L23.8534 23.9791H21.3242L19.7027 15.121L21.3617 11.1379H21.3639ZM24.131 14.0641C24.131 8.20721 28.9868 3.64276 34.7546 3.64276C37.3388 3.64276 39.7402 4.55873 41.6041 6.09783H34.7546C30.302 6.09783 26.8123 9.53493 26.8123 13.9783C26.8123 18.4216 30.2536 21.971 34.7546 21.971C39.2556 21.971 42.6968 18.4568 42.6968 13.9783C42.6968 12.0693 42.0513 10.3452 40.9652 9.00208H44.0474C44.8934 10.4905 45.3781 12.2124 45.3781 14.0619C45.3781 19.8792 40.5091 24.4261 34.7546 24.4261C29 24.4261 24.131 19.8792 24.131 14.0619V14.0641ZM52.4501 4.09194C58.0219 4.09194 62.1748 8.46042 62.1748 13.9805C62.1748 19.5005 57.9602 23.9813 52.2518 23.9813H47.5173V9.00428H50.0597V21.5262H52.644C56.7396 21.5262 59.4935 17.8381 59.4935 13.9518C59.4935 10.0656 56.6449 6.54701 52.5625 6.54701H47.5195V4.09194H52.4501ZM66.971 6.54701V12.6682H74.682V15.1232H66.971V21.524H75.6359V23.9791H64.4286V4.08974H75.6359V6.5448H66.971V6.54701ZM84.7899 15.9445L91.613 23.9791H88.1916L79.8549 13.9563H82.9922C85.1138 13.9563 86.7265 12.3049 86.7265 10.1955C86.7265 8.0861 85.0389 6.5448 82.8798 6.5448H78.4273V4.08974H82.741C86.4357 4.08974 89.4099 6.2982 89.4099 10.1669C89.4099 12.9808 87.643 15.4645 84.7943 15.9445H84.7899Z" fill="white"/>
<path fill-rule="evenodd" clip-rule="evenodd" d="M5.26376 6.99033L6.08139 2.68262L12.8604 19.0309L19.4491 2.68481L20.2624 6.9312L15.8671 17.6205L12.8388 24.9811L9.10967 16.127L6.92931 10.952L5.2616 6.99252L5.26376 6.99033Z" fill="#FDEB31"/>
<path d="M121.358 6.07309L119.315 12H118.08L120.653 5.16198H121.442L121.358 6.07309ZM123.067 12L121.02 6.07309L120.931 5.16198H121.724L124.307 12H123.067ZM122.969 9.46392V10.3985H119.249V9.46392H122.969ZM129.591 8.01741V8.95201H125.96V8.01741H129.591ZM126.252 5.16198V12H125.073V5.16198H126.252ZM130.497 5.16198V12H129.323V5.16198H130.497ZM134.574 5.16198V12H133.404V5.16198H134.574ZM136.72 5.16198V6.10126H131.277V5.16198H136.72ZM138.786 10.0792L141.82 5.16198H142.999V12H141.82V7.07813L138.786 12H137.612V5.16198H138.786V10.0792Z" fill="#FDEB31"/>
<path d="M149.372 8.90974H147.63L147.62 8.05029H149.142C149.399 8.05029 149.616 8.01272 149.795 7.93757C149.977 7.8593 150.114 7.74815 150.208 7.60413C150.302 7.45697 150.349 7.28007 150.349 7.07343C150.349 6.84487 150.305 6.65858 150.218 6.51455C150.13 6.37053 149.995 6.26564 149.814 6.19989C149.635 6.13414 149.407 6.10126 149.128 6.10126H147.987V12H146.808V5.16198H149.128C149.504 5.16198 149.839 5.19798 150.133 5.26999C150.431 5.34201 150.683 5.45472 150.889 5.60814C151.099 5.75842 151.257 5.94941 151.364 6.1811C151.473 6.4128 151.528 6.68832 151.528 7.00768C151.528 7.28947 151.461 7.54777 151.326 7.78259C151.191 8.01428 150.993 8.20371 150.73 8.35086C150.467 8.49802 150.139 8.58568 149.748 8.61386L149.372 8.90974ZM149.321 12H147.259L147.79 11.0654H149.321C149.587 11.0654 149.809 11.0216 149.987 10.9339C150.166 10.8431 150.299 10.7194 150.387 10.5629C150.477 10.4032 150.523 10.2169 150.523 10.004C150.523 9.78171 150.484 9.58916 150.405 9.42635C150.327 9.26041 150.204 9.1336 150.034 9.04594C149.865 8.95514 149.645 8.90974 149.372 8.90974H148.048L148.057 8.05029H149.781L150.049 8.37434C150.424 8.38687 150.733 8.46984 150.974 8.62326C151.218 8.77667 151.4 8.97549 151.519 9.2197C151.638 9.46392 151.697 9.72692 151.697 10.0087C151.697 10.4439 151.602 10.8087 151.411 11.103C151.223 11.3973 150.952 11.6212 150.598 11.7746C150.244 11.9249 149.818 12 149.321 12ZM155.548 6.07309L153.505 12H152.27L154.844 5.16198H155.633L155.548 6.07309ZM157.258 12L155.21 6.07309L155.121 5.16198H155.914L158.497 12H157.258ZM157.159 9.46392V10.3985H153.439V9.46392H157.159ZM159.263 5.16198H161.682C162.201 5.16198 162.644 5.24025 163.011 5.3968C163.377 5.55335 163.657 5.78504 163.851 6.09187C164.049 6.39557 164.147 6.77129 164.147 7.21902C164.147 7.56029 164.085 7.86087 163.959 8.12074C163.834 8.38061 163.657 8.59977 163.429 8.77824C163.2 8.95357 162.928 9.08977 162.612 9.18683L162.255 9.3606H160.08L160.071 8.426H161.7C161.982 8.426 162.217 8.37591 162.405 8.27572C162.593 8.17553 162.734 8.03933 162.828 7.86713C162.925 7.69179 162.973 7.49454 162.973 7.27538C162.973 7.03742 162.926 6.83078 162.832 6.65544C162.741 6.47698 162.601 6.34078 162.41 6.24685C162.219 6.14979 161.976 6.10126 161.682 6.10126H160.442V12H159.263V5.16198ZM163.166 12L161.56 8.92852L162.795 8.92383L164.424 11.9389V12H163.166ZM167.886 8.90974H166.143L166.134 8.05029H167.656C167.912 8.05029 168.13 8.01272 168.308 7.93757C168.49 7.8593 168.628 7.74815 168.722 7.60413C168.816 7.45697 168.863 7.28007 168.863 7.07343C168.863 6.84487 168.819 6.65858 168.731 6.51455C168.643 6.37053 168.509 6.26564 168.327 6.19989C168.149 6.13414 167.92 6.10126 167.641 6.10126H166.5V12H165.321V5.16198H167.641C168.017 5.16198 168.352 5.19798 168.646 5.26999C168.944 5.34201 169.196 5.45472 169.403 5.60814C169.612 5.75842 169.77 5.94941 169.877 6.1811C169.987 6.4128 170.041 6.68832 170.041 7.00768C170.041 7.28947 169.974 7.54777 169.839 7.78259C169.705 8.01428 169.506 8.20371 169.243 8.35086C168.98 8.49802 168.653 8.58568 168.261 8.61386L167.886 8.90974ZM167.834 12H165.772L166.303 11.0654H167.834C168.1 11.0654 168.322 11.0216 168.501 10.9339C168.679 10.8431 168.812 10.7194 168.9 10.5629C168.991 10.4032 169.036 10.2169 169.036 10.004C169.036 9.78171 168.997 9.58916 168.919 9.42635C168.841 9.26041 168.717 9.1336 168.548 9.04594C168.379 8.95514 168.158 8.90974 167.886 8.90974H166.561L166.571 8.05029H168.294L168.562 8.37434C168.938 8.38687 169.246 8.46984 169.487 8.62326C169.731 8.77667 169.913 8.97549 170.032 9.2197C170.151 9.46392 170.21 9.72692 170.21 10.0087C170.21 10.4439 170.115 10.8087 169.924 11.103C169.736 11.3973 169.465 11.6212 169.111 11.7746C168.758 11.9249 168.332 12 167.834 12ZM175.874 11.0654V12H172.244V11.0654H175.874ZM172.577 5.16198V12H171.399V5.16198H172.577ZM175.4 8.01741V8.93792H172.244V8.01741H175.4ZM175.851 5.16198V6.10126H172.244V5.16198H175.851ZM176.837 5.16198H179.256C179.775 5.16198 180.219 5.24025 180.585 5.3968C180.951 5.55335 181.231 5.78504 181.425 6.09187C181.623 6.39557 181.721 6.77129 181.721 7.21902C181.721 7.56029 181.659 7.86087 181.534 8.12074C181.408 8.38061 181.231 8.59977 181.003 8.77824C180.774 8.95357 180.502 9.08977 180.186 9.18683L179.829 9.3606H177.654L177.645 8.426H179.275C179.556 8.426 179.791 8.37591 179.979 8.27572C180.167 8.17553 180.308 8.03933 180.402 7.86713C180.499 7.69179 180.547 7.49454 180.547 7.27538C180.547 7.03742 180.5 6.83078 180.406 6.65544C180.316 6.47698 180.175 6.34078 179.984 6.24685C179.793 6.14979 179.55 6.10126 179.256 6.10126H178.016V12H176.837V5.16198ZM180.74 12L179.134 8.92852L180.369 8.92383L181.998 11.9389V12H180.74ZM186.493 10.2388C186.493 10.0979 186.471 9.9727 186.427 9.86312C186.387 9.75353 186.313 9.65334 186.206 9.56254C186.1 9.47175 185.95 9.38408 185.756 9.29954C185.565 9.21188 185.32 9.12264 185.023 9.03185C184.697 8.93166 184.397 8.82051 184.121 8.6984C183.849 8.57316 183.611 8.42914 183.407 8.26633C183.204 8.10038 183.046 7.91096 182.933 7.69806C182.82 7.48202 182.764 7.23311 182.764 6.95132C182.764 6.67267 182.822 6.41906 182.938 6.1905C183.057 5.96194 183.224 5.76469 183.44 5.59874C183.659 5.42967 183.918 5.29974 184.215 5.20894C184.513 5.11501 184.841 5.06805 185.201 5.06805C185.709 5.06805 186.145 5.16198 186.512 5.34983C186.881 5.53769 187.165 5.78973 187.362 6.10596C187.562 6.42219 187.662 6.77129 187.662 7.15327H186.493C186.493 6.92784 186.444 6.72902 186.347 6.55682C186.253 6.38149 186.109 6.24372 185.915 6.14353C185.724 6.04334 185.482 5.99325 185.187 5.99325C184.909 5.99325 184.677 6.03551 184.492 6.12005C184.308 6.20459 184.17 6.31887 184.079 6.46289C183.988 6.60692 183.943 6.76973 183.943 6.95132C183.943 7.07969 183.973 7.1971 184.032 7.30355C184.092 7.40688 184.182 7.50394 184.304 7.59473C184.427 7.6824 184.58 7.76537 184.765 7.84365C184.949 7.92192 185.167 7.99706 185.417 8.06908C185.796 8.18179 186.127 8.30703 186.408 8.44479C186.69 8.57942 186.925 8.73284 187.113 8.90504C187.301 9.07725 187.442 9.27293 187.536 9.4921C187.629 9.70813 187.676 9.95392 187.676 10.2294C187.676 10.5175 187.619 10.7774 187.503 11.009C187.387 11.2376 187.221 11.4333 187.005 11.5961C186.792 11.7558 186.535 11.8795 186.235 11.9671C185.937 12.0517 185.605 12.0939 185.239 12.0939C184.91 12.0939 184.586 12.0501 184.267 11.9624C183.951 11.8748 183.663 11.7417 183.403 11.5632C183.143 11.3816 182.936 11.1562 182.783 10.8869C182.629 10.6145 182.553 10.2968 182.553 9.93356H183.731C183.731 10.1559 183.769 10.3453 183.844 10.5018C183.922 10.6584 184.03 10.7868 184.168 10.8869C184.306 10.984 184.466 11.056 184.647 11.103C184.832 11.1499 185.029 11.1734 185.239 11.1734C185.515 11.1734 185.745 11.1343 185.929 11.056C186.117 10.9777 186.258 10.8682 186.352 10.7273C186.446 10.5864 186.493 10.4236 186.493 10.2388ZM193.237 8.01741V8.95201H189.607V8.01741H193.237ZM189.898 5.16198V12H188.719V5.16198H189.898ZM194.143 5.16198V12H192.969V5.16198H194.143ZM201 8.39313V8.76885C201 9.28545 200.933 9.74884 200.798 10.159C200.664 10.5691 200.471 10.9183 200.221 11.2063C199.973 11.4943 199.676 11.7151 199.328 11.8685C198.981 12.0188 198.596 12.0939 198.173 12.0939C197.753 12.0939 197.37 12.0188 197.022 11.8685C196.678 11.7151 196.379 11.4943 196.125 11.2063C195.872 10.9183 195.675 10.5691 195.534 10.159C195.396 9.74884 195.327 9.28545 195.327 8.76885V8.39313C195.327 7.87652 195.396 7.4147 195.534 7.00768C195.671 6.59752 195.866 6.24842 196.116 5.96037C196.37 5.66919 196.669 5.44846 197.013 5.29817C197.361 5.14475 197.744 5.06805 198.164 5.06805C198.586 5.06805 198.971 5.14475 199.319 5.29817C199.666 5.44846 199.966 5.66919 200.216 5.96037C200.466 6.24842 200.659 6.59752 200.794 7.00768C200.931 7.4147 201 7.87652 201 8.39313ZM199.821 8.76885V8.38374C199.821 8.00176 199.784 7.66518 199.709 7.374C199.637 7.07969 199.529 6.83391 199.385 6.63666C199.244 6.43628 199.07 6.28599 198.863 6.1858C198.657 6.08248 198.424 6.03082 198.164 6.03082C197.904 6.03082 197.672 6.08248 197.469 6.1858C197.265 6.28599 197.091 6.43628 196.947 6.63666C196.806 6.83391 196.698 7.07969 196.623 7.374C196.548 7.66518 196.51 8.00176 196.51 8.38374V8.76885C196.51 9.15082 196.548 9.48897 196.623 9.78328C196.698 10.0776 196.808 10.3265 196.952 10.53C197.099 10.7304 197.274 10.8822 197.478 10.9856C197.681 11.0858 197.913 11.1359 198.173 11.1359C198.436 11.1359 198.669 11.0858 198.873 10.9856C199.076 10.8822 199.249 10.7304 199.389 10.53C199.53 10.3265 199.637 10.0776 199.709 9.78328C199.784 9.48897 199.821 9.15082 199.821 8.76885ZM204.776 9.44983H202.996V8.51524H204.776C205.086 8.51524 205.337 8.46514 205.528 8.36495C205.719 8.26476 205.858 8.127 205.946 7.95166C206.036 7.7732 206.082 7.56969 206.082 7.34113C206.082 7.12509 206.036 6.92314 205.946 6.73528C205.858 6.5443 205.719 6.39088 205.528 6.27503C205.337 6.15919 205.086 6.10126 204.776 6.10126H203.358V12H202.179V5.16198H204.776C205.305 5.16198 205.755 5.2559 206.124 5.44376C206.497 5.62849 206.78 5.88523 206.974 6.21398C207.168 6.5396 207.265 6.91218 207.265 7.33173C207.265 7.7732 207.168 8.15205 206.974 8.46827C206.78 8.7845 206.497 9.02715 206.124 9.19622C205.755 9.36529 205.305 9.44983 204.776 9.44983Z" fill="white"/>
</svg>
